<svg width="14" height="14" viewBox="0 0 14 14" fill="none" xmlns="http://www.w3.org/2000/svg">
<path d="M6.99979 0C4.40391 0 2.29202 2.11189 2.29199 4.7078C2.29199 7.22099 6.61974 13.6248 6.80396 13.8962C6.84801 13.9611 6.92134 14 6.99979 14C7.07821 14 7.1516 13.9611 7.19563 13.8962C7.37987 13.6249 11.7076 7.22099 11.7076 4.7078C11.7076 2.11189 9.5957 0 6.99979 0ZM6.99982 13.3364C6.14218 12.0366 2.76539 6.78617 2.76539 4.7078C2.76539 2.37295 4.66491 0.473375 6.99979 0.473375C9.33468 0.473375 11.2342 2.37295 11.2342 4.7078C11.2342 6.78614 7.85746 12.0365 6.99982 13.3364Z" fill="#333333"/>
<path d="M7.00013 1.66284C5.32109 1.66284 3.95508 3.02885 3.95508 4.7079C3.95508 6.38694 5.32109 7.75298 7.00013 7.75298C8.6792 7.75298 10.0452 6.38697 10.0452 4.70792C10.0452 3.02888 8.67918 1.66284 7.00013 1.66284ZM7.00013 7.27958C5.58209 7.27958 4.42845 6.12594 4.42845 4.7079C4.42845 3.28985 5.58209 2.13622 7.00013 2.13622C8.41821 2.13622 9.57181 3.28985 9.57181 4.7079C9.57181 6.12594 8.41818 7.27958 7.00013 7.27958Z" fill="#333333"/>
</svg>
