<svg width="22" height="22" viewBox="0 0 22 22" fill="none" xmlns="http://www.w3.org/2000/svg">
<g clip-path="url(#clip0)">
<path d="M16.4709 21.75H4.77875C3.74016 21.75 2.92354 20.8579 3.01478 19.8235L4.09291 7.60476C4.17414 6.68397 4.93246 5.98958 5.85688 5.98958H6.95032V4.17448C6.95032 2.14834 8.59866 0.5 10.6248 0.5C12.6509 0.5 14.2993 2.14834 14.2993 4.17448V5.98958H15.3927C15.5883 5.98958 15.7469 6.14816 15.7469 6.34375C15.7469 6.53934 15.5883 6.69792 15.3927 6.69792H14.2993V8.29167C14.2993 8.48725 14.1407 8.64583 13.9451 8.64583C13.7495 8.64583 13.5909 8.48725 13.5909 8.29167V6.69792H8.94251C8.74692 6.69792 8.58834 6.53934 8.58834 6.34375C8.58834 6.14816 8.74692 5.98958 8.94251 5.98958H13.5909V4.17448C13.5909 2.53894 12.2603 1.20833 10.6248 1.20833C8.98926 1.20833 7.65866 2.53894 7.65866 4.17448V8.29167C7.65866 8.48725 7.50008 8.64583 7.30449 8.64583C7.1089 8.64583 6.95032 8.48725 6.95032 8.29167V6.69792H5.85688C5.30225 6.69792 4.84724 7.11455 4.7985 7.66705L3.72037 19.8858C3.66543 20.5083 4.15453 21.0417 4.77875 21.0417H16.4709C17.0958 21.0417 17.5841 20.5076 17.5292 19.8858L16.4511 7.66705C16.4339 7.47221 16.5779 7.30031 16.7728 7.28313C16.9675 7.26609 17.1395 7.40997 17.1567 7.6048L18.2348 19.8236C18.3261 20.8581 17.5092 21.75 16.4709 21.75V21.75ZM8.58834 18.6953H6.02064C5.82505 18.6953 5.66647 18.8539 5.66647 19.0495C5.66647 19.2451 5.82505 19.4036 6.02064 19.4036H8.58834C8.78393 19.4036 8.94251 19.2451 8.94251 19.0495C8.94251 18.8539 8.78393 18.6953 8.58834 18.6953ZM8.58834 16.9245H6.02064C5.82505 16.9245 5.66647 17.0831 5.66647 17.2786C5.66647 17.4742 5.82505 17.6328 6.02064 17.6328H8.58834C8.78393 17.6328 8.94251 17.4742 8.94251 17.2786C8.94251 17.0831 8.78393 16.9245 8.58834 16.9245Z" fill="#333333"/>
</g>
<defs>
<clipPath id="clip0">
<rect width="21.25" height="21.25" fill="white" transform="translate(0 0.5)"/>
</clipPath>
</defs>
</svg>
