<svg width="14" height="14" viewBox="0 0 14 14" fill="none" xmlns="http://www.w3.org/2000/svg">
<g clip-path="url(#clip0)">
<path d="M13.8962 5.88639L13.8962 5.88636L12.1086 4.70119V0.739805C12.1086 0.61175 12.0047 0.507935 11.8767 0.507935H2.123C1.99495 0.507935 1.89113 0.61175 1.89113 0.739805V4.70147L0.103754 5.88636L0.103785 5.88642C0.0412729 5.92794 0 5.99892 0 6.07962V13.2602C0 13.3882 0.103816 13.492 0.23187 13.492H13.7681C13.8962 13.492 14 13.3882 14 13.2602V6.07962C14 5.99892 13.9587 5.92794 13.8962 5.88639V5.88639ZM1.89113 6.69729L1.16383 6.31149H1.89113V6.69729ZM0.46374 6.46508L5.79598 9.29358L0.46374 12.8281V6.46508V6.46508ZM6.99991 9.05185L12.9988 13.0283H1.00109L6.99991 9.05185V9.05185ZM8.20393 9.29361L13.5362 6.46508V12.8282L8.20393 9.29361V9.29361ZM12.1086 6.31149H12.8362L12.1086 6.69744V6.31149ZM12.9988 5.84775H12.1086V5.25756L12.9988 5.84775ZM11.6448 0.971674V6.94344L7.76403 9.00201L7.12799 8.58041C7.05036 8.52894 6.94942 8.52894 6.87179 8.58041L6.23585 9.00195L2.35487 6.94328V0.971674H11.6448V0.971674ZM1.89113 5.84775H1.00131L1.89113 5.25787V5.84775Z" fill="#333333"/>
<path d="M7.00012 6.6058H8.84746C8.97552 6.6058 9.07933 6.50199 9.07933 6.37393C9.07933 6.24588 8.97552 6.14206 8.84746 6.14206H7.00012C6.10934 6.14206 5.38464 5.41736 5.38464 4.52658V4.45816C5.38464 3.56738 6.10934 2.84268 7.00012 2.84268C7.8909 2.84268 8.61559 3.56738 8.61559 4.45816V4.62922C8.61559 4.82204 8.45873 4.97894 8.26587 4.97894C8.07302 4.97894 7.91615 4.82207 7.91615 4.62922V4.30423C7.91615 3.75195 7.46685 3.30261 6.91457 3.30261C6.36229 3.30261 5.91299 3.75192 5.91299 4.30423C5.91299 4.85652 6.36229 5.30582 6.91457 5.30582C7.16712 5.30582 7.39797 5.21168 7.57432 5.05688C7.71789 5.28823 7.97412 5.44265 8.26587 5.44265C8.7144 5.44265 9.07933 5.07775 9.07933 4.62919V4.45813C9.07933 3.31164 8.1466 2.37891 7.00012 2.37891C5.85363 2.37891 4.9209 3.31164 4.9209 4.45813V4.52655C4.9209 5.67307 5.85363 6.6058 7.00012 6.6058V6.6058ZM6.91457 4.84208C6.618 4.84208 6.37673 4.60081 6.37673 4.30423C6.37673 4.00765 6.61803 3.76635 6.91457 3.76635C7.21112 3.76635 7.45242 4.00765 7.45242 4.30423C7.45242 4.60081 7.21115 4.84208 6.91457 4.84208Z" fill="#333333"/>
</g>
<defs>
<clipPath id="clip0">
<rect width="14" height="14" fill="white"/>
</clipPath>
</defs>
</svg>
